<svg width="32" height="32" viewBox="0 0 32 32" fill="none" xmlns="http://www.w3.org/2000/svg">
  <defs>
    <linearGradient id="logoGradient" x1="0%" y1="0%" x2="100%" y2="100%">
      <stop offset="0%" stop-color="#4F7CAC"/>
      <stop offset="100%" stop-color="#3CBBB1"/>
    </linearGradient>
  </defs>
  <!-- Lightbulb shape merging with checkmark -->
  <path d="M16 2C10.477 2 6 6.477 6 12c0 3.5 1.8 6.5 4.5 8.3V22c0 1.1.9 2 2 2h7c1.1 0 2-.9 2-2v-1.7c2.7-1.8 4.5-4.8 4.5-8.3 0-5.523-4.477-10-10-10z" fill="url(#logoGradient)" opacity="0.2"/>
  <path d="M12 24h8v2c0 1.1-.9 2-2 2h-4c-1.1 0-2-.9-2-2v-2z" fill="url(#logoGradient)" opacity="0.3"/>
  <!-- Checkmark inside -->
  <path d="M11 14l4 4 6-8" stroke="url(#logoGradient)" stroke-width="2.5" stroke-linecap="round" stroke-linejoin="round" fill="none"/>
  <!-- Idea rays -->
  <path d="M16 4v2M8 8l1.5 1.5M24 8l-1.5 1.5" stroke="url(#logoGradient)" stroke-width="1.5" stroke-linecap="round" opacity="0.5"/>
</svg>
